<svg width="24" height="25" viewBox="0 0 24 25" fill="none" xmlns="http://www.w3.org/2000/svg">
<path d="M19.5456 18.2105C19.7495 18.4143 19.864 18.6908 19.864 18.9791C19.864 19.2674 19.7495 19.5438 19.5456 19.7477C19.3418 19.9515 19.0653 20.066 18.7771 20.066C18.4888 20.066 18.2123 19.9515 18.0085 19.7477L12.2677 14.0051L6.5251 19.7458C6.32126 19.9497 6.0448 20.0642 5.75653 20.0642C5.46826 20.0642 5.19179 19.9497 4.98796 19.7458C4.78412 19.542 4.6696 19.2655 4.6696 18.9773C4.6696 18.689 4.78412 18.4125 4.98796 18.2087L10.7306 12.4679L4.98976 6.7253C4.78592 6.52146 4.67141 6.245 4.67141 5.95673C4.67141 5.66846 4.78592 5.39199 4.98976 5.18815C5.1936 4.98432 5.47007 4.8698 5.75834 4.8698C6.04661 4.8698 6.32307 4.98432 6.52691 5.18815L12.2677 10.9308L18.0103 5.18725C18.2141 4.98341 18.4906 4.8689 18.7789 4.8689C19.0672 4.8689 19.3436 4.98341 19.5475 5.18725C19.7513 5.39109 19.8658 5.66755 19.8658 5.95582C19.8658 6.24409 19.7513 6.52056 19.5475 6.7244L13.8049 12.4679L19.5456 18.2105Z" fill="white"/>
</svg>
